<?xml version="1.0" standalone="no"?>
<!DOCTYPE svg PUBLIC "-//W3C//DTD SVG 20010904//EN"
 "http://www.w3.org/TR/2001/REC-SVG-20010904/DTD/svg10.dtd">
<svg version="1.0" xmlns="http://www.w3.org/2000/svg"
 width="840.000000pt" height="858.000000pt" viewBox="0 0 840.000000 858.000000"
 preserveAspectRatio="xMidYMid meet">

<g transform="translate(0.000000,858.000000) scale(0.100000,-0.100000)"
fill="#000000" stroke="none">
<path d="M7341 8159 c-133 -26 -176 -46 -811 -379 -1164 -610 -3260 -1708
-4480 -2347 -751 -393 -1392 -731 -1425 -751 -158 -94 -267 -209 -341 -357
-101 -204 -100 -413 4 -625 77 -159 234 -300 426 -384 105 -46 853 -341 930
-367 103 -35 247 -60 383 -67 l132 -7 -35 -55 c-114 -180 -134 -427 -58 -695
14 -49 93 -240 176 -425 82 -184 208 -468 279 -630 72 -162 146 -329 166 -370
68 -140 215 -257 364 -290 36 -8 98 -11 167 -8 103 4 116 7 186 41 124 62 225
173 414 459 160 240 415 660 448 737 37 84 64 180 64 223 0 15 5 28 11 28 18
0 1474 -592 1546 -629 72 -36 151 -53 247 -52 190 1 322 73 427 235 75 114 11
-110 934 3281 180 660 405 1488 501 1840 96 352 181 678 189 724 37 210 -3
424 -109 584 -88 133 -258 250 -412 282 -75 16 -252 18 -323 4z m198 -530 c93
-20 131 -94 118 -228 -3 -31 -96 -389 -207 -796 -287 -1052 -517 -1897 -840
-3085 -155 -569 -306 -1125 -336 -1235 -120 -435 -147 -530 -149 -533 -1 -1
-105 40 -231 92 -586 241 -1543 628 -2010 811 -238 94 -357 151 -408 196 -20
17 -50 60 -68 96 -27 56 -32 77 -32 135 1 58 7 79 37 141 32 64 98 138 574
647 947 1013 1931 2067 2162 2315 218 234 281 309 268 322 -17 16 -57 -15
-992 -752 -239 -189 -1591 -1254 -2487 -1960 -147 -116 -292 -225 -321 -243
-127 -77 -347 -132 -528 -132 -186 0 -184 -1 -1034 337 -231 92 -305 154 -305
258 0 71 40 129 128 188 37 25 692 372 1457 772 765 400 1426 747 1470 770 44
23 229 120 410 215 182 95 371 194 420 220 368 195 2635 1380 2691 1407 38 18
90 37 115 42 24 5 45 9 46 10 1 1 25 -4 52 -10z m-4550 -5142 c114 -58 240
-126 280 -151 39 -24 98 -54 129 -67 78 -31 253 -126 310 -169 92 -70 113
-139 72 -235 -35 -83 -431 -705 -549 -862 -25 -34 -50 -61 -56 -59 -5 1 -25
38 -43 82 -44 103 -328 740 -427 959 -109 239 -135 314 -142 406 -11 150 37
213 156 206 58 -3 81 -12 270 -110z"/>
</g>
</svg>
